<svg width="138" height="44" viewBox="0 0 138 44" fill="none" xmlns="http://www.w3.org/2000/svg">
<path d="M137.534 13.2787C136.282 9.69724 132.868 7.12539 128.858 7.12539H128.774C126.168 7.12539 123.819 8.21024 122.147 9.95179C120.472 8.21024 118.123 7.12539 115.519 7.12539H115.435C113.144 7.12539 111.049 7.9643 109.441 9.35298V8.64708C109.386 7.94405 108.807 7.39158 108.093 7.39158H101.942C101.19 7.39158 100.583 7.99907 100.583 8.7541V42.1534C100.583 42.9085 101.19 43.516 101.942 43.516H108.093C108.778 43.516 109.342 43.004 109.432 42.3415L109.429 18.3646C109.429 18.2844 109.432 18.2042 109.441 18.1244C109.539 17.054 110.323 16.1746 111.561 16.0646H112.695C113.213 16.1109 113.65 16.2932 113.994 16.568C114.529 16.9933 114.827 17.6471 114.827 18.3646L114.851 42.2229C114.851 42.9779 115.461 43.5883 116.21 43.5883H122.361C123.087 43.5883 123.677 43.0097 123.712 42.2894L123.709 18.3327C123.706 17.5458 124.07 16.8342 124.71 16.4118C125.025 16.2092 125.404 16.0733 125.841 16.0328H126.975C128.306 16.1485 129.11 17.1582 129.107 18.3327L129.13 42.1593C129.13 42.9143 129.741 43.5218 130.49 43.5218H136.64C137.39 43.5218 138 42.9143 138 42.1593V16.5333C138 14.7859 137.803 14.0425 137.534 13.2787ZM95.897 7.47858H92.3792V1.76207C92.3791 1.07642 91.8237 0.520996 91.1381 0.520996C91.057 0.520996 90.979 0.532477 90.9038 0.546992C87.004 1.61741 87.7851 7.01862 80.6656 7.47858H79.9741C79.8699 7.47858 79.7716 7.49302 79.6762 7.51327C79.0686 7.64932 78.6116 8.19023 78.6116 8.83832V14.9887C78.6116 15.738 79.2219 16.3484 79.9741 16.3484H83.6858L83.6801 42.4286C83.6801 43.172 84.2818 43.7738 85.0252 43.7738H91.1062C91.8468 43.7738 92.4487 43.172 92.4487 42.4286L92.4515 16.3484H95.897C96.6463 16.3484 97.2567 15.738 97.2567 14.9887V8.83832C97.2567 8.08903 96.6463 7.47858 95.897 7.47858Z" fill="#00BAF2"/>
<path d="M73.7684 7.47853H67.618C66.8687 7.47853 66.2611 8.08898 66.2611 8.83818V21.5557C66.2467 22.3426 65.6103 22.9733 64.8205 22.9733H62.2458C61.4473 22.9733 60.8021 22.331 60.8021 21.5325L60.779 8.83826C60.779 8.08898 60.1686 7.47861 59.4194 7.47861H53.2689C52.5167 7.47861 51.9092 8.08898 51.9092 8.83826V22.7766C51.9092 28.0707 55.6845 31.846 60.9815 31.846C60.9815 31.846 64.9564 31.846 65.078 31.8692C65.7954 31.9502 66.3537 32.5519 66.3537 33.2925C66.3537 34.0244 65.807 34.6232 65.0982 34.7129C65.0635 34.7187 65.0317 34.7274 64.9941 34.7332L55.9998 34.765C55.2477 34.765 54.6402 35.3754 54.6402 36.1247V42.2723C54.6402 43.0245 55.2477 43.632 55.9998 43.632H66.0558C71.3557 43.632 75.1281 39.8595 75.1281 34.5626V8.83826C75.1281 8.08898 74.5206 7.47853 73.7684 7.47853ZM14.2363 18.7481V22.5438C14.2363 23.3392 13.5912 23.9873 12.7956 23.9873L8.893 23.9902V16.3846H12.7956C13.5912 16.3846 14.2363 17.0268 14.2363 17.8252V18.7481ZM14.7773 7.47705H1.33365C0.595934 7.47705 0 8.07594 0 8.81071V14.8368C0 14.8484 0.00287019 14.8599 0.00287019 14.8715C0.00287019 14.9004 0 14.9294 0 14.9554V42.2303C0 42.9709 0.555423 43.5756 1.24402 43.5929H7.51006C8.25934 43.5929 8.86971 42.9854 8.86971 42.2333L8.89292 32.886H14.7772C19.701 32.886 23.1321 29.4694 23.1321 24.5253V15.8494C23.1321 10.9053 19.7011 7.47705 14.7773 7.47705ZM39.7554 33.1875V34.1479C39.7554 34.2261 39.7439 34.3013 39.7324 34.3736C39.7179 34.4415 39.6986 34.5082 39.6745 34.5732C39.4835 35.1113 38.9455 35.5018 38.3061 35.5018H35.7459C34.9474 35.5018 34.2965 34.8944 34.2965 34.1479V32.9879C34.2965 32.9735 34.2935 32.9589 34.2935 32.9445L34.2965 29.8577V28.8914L34.2994 28.8828C34.3022 28.1392 34.9474 27.5376 35.7459 27.5376H38.3061C39.1074 27.5376 39.7555 28.1422 39.7555 28.8915L39.7554 33.1875ZM38.7778 7.5124H30.2435C29.4884 7.5124 28.8781 8.0852 28.8781 8.78815V11.1807C28.8781 11.1951 28.8809 11.2125 28.8809 11.2269C28.8809 11.2443 28.878 11.2616 28.878 11.279V14.5567C28.878 15.3003 29.5261 15.9078 30.3246 15.9078H38.4508C39.0931 16.0091 39.6022 16.4777 39.6746 17.2096V18.0023C39.6022 18.6995 39.0989 19.2086 38.4855 19.2665H34.4615C29.1095 19.2665 25.2966 22.822 25.2966 27.8152V34.9667C25.2966 39.931 28.5743 43.4633 33.8886 43.4633H45.041C47.0429 43.4633 48.6659 41.9474 48.6659 40.0814V16.7438C48.6659 11.0852 45.7499 7.5124 38.7778 7.5124Z" fill="#1F336B"/>
</svg>
