<svg width="188" height="191" viewBox="0 0 188 304" fill="none" xmlns="http://www.w3.org/2000/svg">
<path d="M68.8173 -10L0 29.478L25.1901 83.3906L119.183 97.8399L188 58.3766L162.81 4.44928L68.8173 -10Z" fill="white"/>
<path d="M76.3699 6.1709L28.1963 33.804L45.8338 71.5458L111.63 81.6691L159.789 54.036L142.166 16.2942L76.3699 6.1709Z" fill="#292B6B"/>
<path d="M119.183 97.8399V436H25.1901V83.3906L119.183 97.8399Z" fill="#CACDE0"/>
<path d="M119.183 97.8398L188 58.3765V436H119.183V97.8398Z" fill="#D5D7E6"/>
<path d="M0 29.478V436H25.1901V83.3906L0 29.478Z" fill="#A2AAE0"/>
<path d="M93.03 61.1961C87.6247 64.3008 78.8282 64.3008 73.4081 61.1961L66.7441 57.3705C61.3388 54.2658 61.3388 49.2188 66.7441 46.1142C72.1494 43.0095 80.9459 43.0095 86.366 46.1142L93.03 49.9398C98.4353 53.0445 98.4353 58.0915 93.03 61.1961ZM69.543 47.7327C65.6778 49.9545 65.6778 53.5595 69.543 55.7666L76.207 59.5923C80.0722 61.8141 86.366 61.8141 90.2163 59.5923C94.0815 57.3705 94.0815 53.7655 90.2163 51.5584L83.5523 47.7327C79.7019 45.5109 73.4081 45.5109 69.543 47.7327Z" fill="white"/>
<path d="M119.094 58.6505L88.5725 76.1603C87.8025 76.6017 86.5437 76.6017 85.7736 76.1603C79.3317 72.467 77.1844 66.9051 80.2795 61.9759C80.6497 61.3873 81.79 61.0783 82.8118 61.299C83.8337 61.5197 84.3668 62.1672 83.9966 62.7557C81.6419 66.4931 82.9303 70.6719 87.2397 73.7177L114.829 57.9001C109.527 55.4281 102.241 54.6924 95.7253 56.0461C94.7035 56.2668 93.5632 55.9578 93.1929 55.3692C92.8227 54.7807 93.3558 54.1332 94.3777 53.9125C102.952 52.1321 112.652 53.3681 119.094 57.0614C119.879 57.4733 119.879 58.1943 119.094 58.6505Z" fill="white"/>
<path d="M98.6574 48.7625C97.8874 49.2039 96.6286 49.2039 95.8586 48.7625C95.0885 48.3211 95.0885 47.6001 95.8586 47.1586C99.7237 44.9368 99.7237 41.3318 95.8586 39.1247L89.1945 35.2991C85.3294 33.0772 79.0355 33.0772 75.1852 35.2991C72.6677 36.741 71.6903 38.8599 72.6381 40.8316C72.9194 41.4348 72.3123 42.0676 71.246 42.2294C70.1946 42.3913 69.0987 42.0381 68.8174 41.4348C67.4994 38.6833 68.8618 35.711 72.3863 33.6952C77.7916 30.5905 86.5881 30.5905 92.0082 33.6952L98.6723 37.5209C104.063 40.6109 104.063 45.6578 98.6574 48.7625Z" fill="white"/>
<path d="M124.721 46.2022L113.925 52.3969C113.155 52.8383 111.897 52.8383 111.127 52.3969C110.357 51.9555 110.357 51.2345 111.127 50.793L120.441 45.4518C115.14 42.9798 107.854 42.2441 101.338 43.5978C100.316 43.8185 99.1757 43.5096 98.8055 42.921C98.4353 42.3324 98.9684 41.685 99.9902 41.4643C108.565 39.6839 118.265 40.9199 124.706 44.6131C125.491 45.0398 125.491 45.7608 124.721 46.2022Z" fill="white"/>
</svg>
