<svg width="186" height="370" viewBox="0 0 186 370" fill="none" xmlns="http://www.w3.org/2000/svg">
<g clip-path="url(#clip0_2635_150)">
<path d="M68.0852 0L0 39.5253L24.9221 93.5024L117.915 107.969L186 68.4584L161.078 14.4666L68.0852 0Z" fill="white"/>
<path d="M75.5575 16.1904L27.8964 43.8567L45.3462 81.6436L110.443 91.779L158.089 64.1128L140.654 26.3259L75.5575 16.1904Z" fill="#292B6B"/>
<path d="M117.915 107.969V536H24.9221V93.5024L117.915 107.969Z" fill="#CACDE0"/>
<path d="M117.915 107.969L186 68.4585V536H117.915V107.969Z" fill="#D5D7E6"/>
<path d="M0 39.5254V536H24.9221V93.5025L0 39.5254Z" fill="#A2AAE0"/>
<path d="M105.329 42.0886L88.9195 51.62C88.1577 52.062 86.9123 52.062 86.1504 51.62L73.1253 44.0626C72.3634 43.6207 72.3634 42.8988 73.1253 42.4569C73.8872 42.0149 75.1325 42.0149 75.8944 42.4569L87.5277 49.2188L102.56 40.4828C103.322 40.0409 104.567 40.0409 105.329 40.4828C106.091 40.9248 106.091 41.6466 105.329 42.0886Z" fill="white"/>
<path d="M101.93 59.1775C92.1136 64.8787 77.6672 65.7626 69.7262 61.1515C61.7851 56.5405 63.3088 48.1581 73.1253 42.457C82.9418 36.7558 97.3881 35.8719 105.329 40.4829C113.27 45.0939 111.746 53.4763 101.93 59.1775ZM75.8944 44.0627C67.6017 48.88 66.078 55.8186 72.4953 59.5458C78.9126 63.2729 90.8682 62.389 99.1609 57.5717C107.454 52.7544 108.963 45.8158 102.56 42.0887C96.1574 38.3615 84.1871 39.2454 75.8944 44.0627Z" fill="white"/>
<path d="M111.175 64.5398C101.197 70.3294 88.7145 72.1708 82.7513 68.7089L69.7262 61.1515C68.9643 60.7095 68.9643 59.9877 69.7262 59.5457C70.4881 59.1038 71.7334 59.1038 72.4953 59.5457L85.5204 67.1031C89.7694 69.578 100.245 67.6629 108.391 62.934C116.538 58.2051 119.834 52.1209 115.571 49.646L102.56 42.0886C101.798 41.6466 101.798 40.9248 102.56 40.4828C103.322 40.0409 104.567 40.0409 105.329 40.4828L118.354 48.0402C124.303 51.4875 121.153 58.7355 111.175 64.5398Z" fill="white"/>
</g>
<defs>
<clipPath id="clip0_2635_150">
<rect width="186" height="536" fill="white"/>
</clipPath>
</defs>
</svg>
