<svg width="187" height="315" viewBox="0 0 187 500" fill="none" xmlns="http://www.w3.org/2000/svg">
<g clip-path="url(#clip0_2635_208)">
<path d="M68.4513 0L0 39.4834L25.0561 93.4034L118.549 107.855L187 68.3859L161.944 14.4513L68.4513 0Z" fill="white"/>
<path d="M75.9636 16.1729L28.0463 43.8098L45.5899 81.5567L111.036 91.6814L158.939 64.0445L141.41 26.2976L75.9636 16.1729Z" fill="#292B6B"/>
<path d="M118.549 107.855V696H25.056V93.4033L118.549 107.855Z" fill="#CACDE0"/>
<path d="M118.549 107.854L187 68.3857V696H118.549V107.854Z" fill="#D5D7E6"/>
<path d="M0 39.4834V696H25.0561V93.4033L0 39.4834Z" fill="#A2AAE0"/>
<path d="M86.1275 27.6074C86.5105 27.5043 86.8787 27.4013 87.2617 27.313C89.5302 26.7685 92.3142 27.4013 93.4631 28.7258C94.6121 30.0502 93.6841 31.5807 91.3125 31.9928C90.3109 32.1694 90.0605 32.4195 90.0605 32.9787C90.031 36.025 89.9132 39.0712 89.8837 42.1175C89.8837 42.4412 90.2078 42.8974 90.6497 43.1035C92.2847 43.8981 93.0507 44.8105 92.6235 45.9289C92.2258 46.9738 90.9737 47.5477 89.0735 47.6507C86.9966 47.7685 85.4352 47.1945 84.3009 46.1791C84.1831 46.0761 84.08 45.9584 83.9032 45.7671C82.1651 45.8701 80.3827 45.9437 78.6445 46.0908C78.3057 46.1203 77.9522 46.3999 77.8491 46.6206C77.4072 47.533 76.3761 48.0628 74.7705 48.3277C74.3433 48.4013 73.8425 48.6956 73.7836 48.9458C73.1649 51.8154 72.5904 54.6998 72.0896 57.5841C72.0454 57.8343 72.502 58.2464 72.9292 58.4377C75.0209 59.4089 75.6101 60.9541 74.196 62.0726C72.8703 63.1174 69.9979 63.2646 67.921 62.3816C65.844 61.4986 65.2548 59.9534 66.6836 58.8497C67.1255 58.5113 67.8031 58.1875 68.5249 58.0845C69.6002 57.9373 69.8801 57.5989 69.9832 57.0396C70.4693 54.3024 71.0143 51.5652 71.574 48.8427C71.6772 48.3424 71.5299 48.0334 70.7197 47.6507C68.4954 46.6206 68.245 44.8988 70.0421 43.9128C71.8539 42.9269 74.9325 43.0887 76.7443 44.3396C77.4072 44.7958 77.9817 44.8988 78.8508 44.8105C79.6462 44.7369 80.4564 44.6781 81.2665 44.6634C82.6659 44.6339 83.697 44.4868 84.3893 43.6627C84.8754 43.074 86.319 42.7797 87.6447 42.2352C87.7184 39.1448 87.8067 35.7601 87.8657 32.3901C87.8657 32.1841 87.6447 31.9045 87.3501 31.7573C84.5366 30.3593 84.2273 29.6823 85.6267 27.8134C85.8329 27.7692 85.9802 27.6957 86.1275 27.6074ZM75.0209 44.9577C74.034 44.4132 72.5462 44.3838 71.6477 44.8988C70.7786 45.3992 70.8817 46.2674 71.8687 46.7825C72.8114 47.2828 74.2549 47.2976 75.124 46.8414C76.052 46.341 76.0078 45.5169 75.0209 44.9577ZM89.7953 44.266C88.7937 43.7215 87.3206 43.6921 86.4368 44.2072C85.6267 44.6928 85.6856 45.5022 86.5841 46.032C87.5416 46.5912 89.0441 46.6353 89.9573 46.135C90.8706 45.6346 90.8117 44.8252 89.7953 44.266ZM91.0032 28.7699C90.0163 28.2107 88.5285 28.1666 87.6447 28.6669C86.7609 29.1673 86.864 30.0061 87.8657 30.5359C88.8379 31.0656 90.2078 31.0951 91.0916 30.6242C92.049 30.1385 92.0048 29.3439 91.0032 28.7699ZM71.9718 59.5561C70.9406 59.0116 69.4971 59.0116 68.628 59.5561C67.8326 60.0564 67.9504 60.8511 68.8637 61.3662C69.8506 61.9107 71.3384 61.9401 72.2222 61.4251C73.1207 60.8953 73.0176 60.1006 71.9718 59.5561Z" fill="#ECEDF7"/>
<path d="M116.619 44.1189C121.333 46.709 126.046 49.299 130.745 51.889C132.248 52.7132 132.248 52.8162 130.907 53.5961C129.42 54.4497 127.888 55.2885 126.415 56.1567C125.649 56.6129 124.956 56.5982 124.058 56.1126C114.365 50.7706 104.658 45.4434 94.9362 40.1161C94.0229 39.6158 94.0377 39.2479 94.8184 38.8064C96.424 37.9234 98.0148 37.0405 99.532 36.1133C100.475 35.5394 101.226 35.6424 102.257 36.2164C107.015 38.8653 111.832 41.4847 116.619 44.1189ZM96.8364 39.4833C106.293 44.6781 115.647 49.8141 125.045 54.9794C126.444 54.1848 127.77 53.4342 129.081 52.6837C119.624 47.4889 110.27 42.353 100.872 37.1876C99.5173 37.9529 98.2358 38.674 96.8364 39.4833Z" fill="#ECEDF7"/>
<path d="M98 57.4517C101.933 59.615 105.836 61.793 109.828 63.9268C110.977 64.5449 110.992 64.9717 109.961 65.5162C108.37 66.355 106.853 67.2527 105.336 68.1356C104.555 68.5918 103.848 68.5624 102.964 68.0768C94.9066 63.6325 86.8345 59.203 78.7329 54.7734C77.7607 54.2436 77.7901 53.8316 78.615 53.3754C80.2206 52.4924 81.7968 51.5947 83.3287 50.697C84.1536 50.2114 84.8754 50.2408 85.8181 50.7706C89.8689 52.9927 93.9492 55.2149 98 57.4517ZM108.105 64.6479C100.224 60.3214 92.5056 56.0831 84.7723 51.8302C83.3729 52.6248 82.0324 53.3901 80.7214 54.1259C88.5432 58.423 96.2618 62.6612 104.054 66.9436C105.439 66.1637 106.735 65.4279 108.105 64.6479Z" fill="#ECEDF7"/>
<path d="M114.409 64.633C120.817 60.9981 127.225 57.3485 133.618 53.7136C133.942 53.5223 134.236 53.2721 134.649 53.1838C135.017 53.1103 135.68 53.125 135.945 53.2721C136.21 53.4193 136.269 53.7872 136.151 53.9932C136.019 54.2287 135.577 54.4053 135.253 54.5966C122.379 61.9252 109.49 69.2539 96.6154 76.5678C96.5417 76.6119 96.4681 76.6561 96.3944 76.6855C95.7905 76.9946 95.1276 77.4949 94.2733 76.921C94.0081 76.7444 94.3469 76.0674 94.7741 75.8173C100.548 72.4767 106.382 69.1803 112.2 65.8691C112.951 65.4718 113.673 65.045 114.409 64.633Z" fill="#ECEDF7"/>
<path d="M83.9916 69.416C81.2371 67.9002 78.5267 66.3845 75.7427 64.8981C74.6821 64.3242 74.5643 63.8974 75.5512 63.3677C77.1715 62.4994 78.7329 61.587 80.2796 60.6893C81.0014 60.2773 81.679 60.2625 82.5186 60.7187C88.2044 63.8533 93.905 66.9878 99.6204 70.1076C100.386 70.5197 100.489 70.8876 99.7824 71.2849C98.0884 72.2415 96.3944 73.198 94.7299 74.1546C93.8903 74.6402 93.1685 74.4636 92.3436 74.0074C89.5744 72.4622 86.7756 70.9465 83.9916 69.416ZM97.5581 70.6374C92.1963 67.6942 86.8935 64.7804 81.5906 61.8666C80.2059 62.6466 78.9097 63.3971 77.5692 64.1476C82.931 67.0908 88.2339 70.0046 93.5368 72.9184C94.9214 72.1385 96.2177 71.4027 97.5581 70.6374Z" fill="#ECEDF7"/>
<path d="M113.364 54.1113C115.735 55.421 118.092 56.7308 120.508 58.0258C121.465 58.5409 121.554 58.9382 120.67 59.4091C119.02 60.3068 117.429 61.2339 115.838 62.161C115.116 62.5731 114.439 62.5878 113.599 62.1316C108.738 59.4385 103.848 56.7602 98.9575 54.0819C98.1768 53.6551 98.1326 53.2872 98.8102 52.8899C100.489 51.9333 102.183 50.9768 103.863 50.0202C104.614 49.5934 105.306 49.667 106.116 50.1232C108.517 51.4624 110.948 52.7868 113.364 54.1113ZM101.034 53.5374C105.616 56.0538 110.049 58.4967 114.527 60.9543C115.912 60.1596 117.238 59.4091 118.578 58.6439C114.026 56.1421 109.593 53.6992 105.085 51.2269C103.73 52.0069 102.434 52.7427 101.034 53.5374Z" fill="#ECEDF7"/>
</g>
<defs>
<clipPath id="clip0_2635_208">
<rect width="187" height="696" fill="white"/>
</clipPath>
</defs>
</svg>
