<svg width="187" height="187" viewBox="0 0 187 187" fill="none" xmlns="http://www.w3.org/2000/svg">
<g clip-path="url(#clip0_2635_67)">
<path d="M68.4513 0L0 39.2951L25.0561 92.9578L118.549 107.34L187 68.0597L161.944 14.3823L68.4513 0Z" fill="white"/>
<path d="M75.9637 16.0957L28.0463 43.6008L45.59 81.1676L111.036 91.244L158.939 63.7389L141.41 26.1721L75.9637 16.0957Z" fill="#292B6B"/>
<path d="M118.549 107.34V212H25.0561V92.958L118.549 107.34Z" fill="#CACDE0"/>
<path d="M118.549 107.34L187 68.0596V212H118.549V107.34Z" fill="#D5D7E6"/>
<path d="M0 39.2949V212H25.0561V92.9577L0 39.2949Z" fill="#A2AAE0"/>
<path d="M112.774 56.0501C112.244 56.3576 111.419 56.4748 110.683 56.3137C109.666 56.094 109.166 55.4349 109.549 54.8491C112.185 50.9093 107.884 44.6409 102.39 41.4773C94.8773 37.1714 82.6512 37.1714 75.1388 41.4773C67.6264 45.7832 67.6411 52.7987 75.1535 57.1192C80.6479 60.2827 91.563 62.7432 98.442 61.2347C99.4584 61.015 100.593 61.3079 100.99 61.8791C101.373 62.465 100.872 63.1094 99.8561 63.3437C91.4599 65.1891 78.8655 62.4503 72.3695 58.7156C63.3252 53.5163 63.3104 45.0656 72.3548 39.8809C81.3991 34.6816 96.1293 34.6816 105.174 39.8809C111.655 43.601 116.442 50.8361 113.231 55.6546C113.113 55.8157 112.966 55.9475 112.774 56.0501Z" fill="white"/>
<path d="M118.313 66.2727C114.159 68.66 107.413 68.66 103.273 66.2727L96.3356 62.2891L111.375 53.6479L118.313 57.6316C122.467 60.0189 122.467 63.8855 118.313 66.2727ZM101.904 62.2891L106.058 64.6617C108.665 66.1556 112.922 66.1556 115.529 64.6617C118.136 63.1678 118.136 60.7219 115.529 59.228L111.375 56.8408L101.904 62.2891Z" fill="white"/>
<path d="M118.18 59.1549L105.925 66.185C105.159 66.6244 103.907 66.6244 103.141 66.185C102.375 65.7456 102.375 65.028 103.141 64.5886L115.396 57.5585C116.162 57.1192 117.414 57.1192 118.18 57.5585C118.946 57.9979 118.946 58.7156 118.18 59.1549Z" fill="white"/>
<path d="M102.655 59.3014L89.2356 51.5977C88.1161 50.9532 88.1161 49.9134 89.2356 49.269C90.3551 48.6245 92.1669 48.6245 93.2864 49.269L106.706 56.9727C107.825 57.6171 107.825 58.657 106.706 59.3014C105.586 59.9459 103.774 59.9459 102.655 59.3014Z" fill="white"/>
</g>
<defs>
<clipPath id="clip0_2635_67">
<rect width="187" height="212" fill="white"/>
</clipPath>
</defs>
</svg>
