<svg width="187" height="276" viewBox="0 0 187 438" fill="none" xmlns="http://www.w3.org/2000/svg">
<g clip-path="url(#clip0_2635_188)">
<path d="M68.4513 0L0 39.4568L25.0561 93.3404L118.549 107.782L187 68.3399L161.944 14.4415L68.4513 0Z" fill="white"/>
<path d="M75.9637 16.1621L28.0463 43.7804L45.59 81.5019L111.036 91.6198L158.939 64.0015L141.41 26.28L75.9637 16.1621Z" fill="#292B6B"/>
<path d="M118.549 107.782V622H25.0561V93.3403L118.549 107.782Z" fill="#CACDE0"/>
<path d="M118.549 107.782L187 68.3398V622H118.549V107.782Z" fill="#D5D7E6"/>
<path d="M0 39.457V622H25.0561V93.3407L0 39.457Z" fill="#A2AAE0"/>
<path d="M128.698 56.3541L98.9723 73.4869C95.6433 75.4134 90.2226 75.4134 86.8788 73.4869L59.5101 57.7071C56.181 55.7806 56.181 52.6629 59.5101 50.7363L89.2356 33.6036C92.5647 31.6771 97.9854 31.6771 101.329 33.6036L128.713 49.3834C132.042 51.2952 132.042 54.4276 128.698 56.3541ZM62.2941 52.3393C60.497 53.3687 60.497 55.06 62.2941 56.0894L89.6775 71.8692C91.4746 72.8986 94.4059 72.8986 96.203 71.8692L125.929 54.7364C127.726 53.707 127.726 52.0158 125.929 50.9863L98.5451 35.2066C96.748 34.1771 93.8167 34.1771 92.0196 35.2066L62.2941 52.3393Z" fill="white"/>
<path d="M91.3423 51.9424C90.0166 52.7071 88.2342 53.2218 86.2309 53.3542L59.2157 55.0895C58.1404 55.1631 57.1535 54.7072 57.0356 54.0895C56.9178 53.4718 57.6985 52.8983 58.7738 52.8395L85.789 51.1041C87.9396 50.9718 89.6189 50.0012 89.8693 48.7511L92.8742 33.1772C92.9921 32.5596 93.9643 32.1037 95.0543 32.1772C96.1296 32.2508 96.9103 32.8096 96.7925 33.4273L93.7875 49.0011C93.5518 50.1482 92.668 51.1777 91.3423 51.9424Z" fill="white"/>
<path d="M111.405 49.3245L86.7904 63.516C86.0245 63.9572 84.7724 63.9572 84.0064 63.516C83.2405 63.0748 83.2405 62.3542 84.0064 61.913L108.621 47.7215C109.387 47.2803 110.639 47.2803 111.405 47.7215C112.171 48.1627 112.171 48.8833 111.405 49.3245Z" fill="white"/>
<path d="M118.151 53.2068L93.5368 67.3983C92.7709 67.8395 91.5188 67.8395 90.7528 67.3983C89.9869 66.9571 89.9869 66.2365 90.7528 65.7954L115.367 51.6038C116.133 51.1627 117.385 51.1627 118.151 51.6038C118.917 52.045 118.917 52.7656 118.151 53.2068Z" fill="white"/>
</g>
<defs>
<clipPath id="clip0_2635_188">
<rect width="187" height="622" fill="white"/>
</clipPath>
</defs>
</svg>
