<svg width="187" height="159" viewBox="0 0 187 252" fill="none" xmlns="http://www.w3.org/2000/svg">
<g clip-path="url(#clip0_2635_109)">
<path d="M68.4513 0.367188L0 39.7605L25.0561 93.5575L118.549 107.976L187 68.5824L161.944 14.7855L68.4513 0.367188Z" fill="white"/>
<path d="M68.4513 0L0 39.3934L25.0561 93.1903L118.549 107.609L187 68.2299L161.944 14.4183L68.4513 0Z" fill="white"/>
<path d="M75.9637 16.1362L28.0463 43.7101L45.59 81.3709L111.036 91.4725L158.939 63.8986L141.41 26.2378L75.9637 16.1362Z" fill="#292B6B"/>
<path d="M118.549 107.609V315H25.0561V93.1904L118.549 107.609Z" fill="#CACDE0"/>
<path d="M118.549 107.609L187 68.23V315H118.549V107.609Z" fill="#D5D7E6"/>
<path d="M0 39.3936V315H25.0561V93.1905L0 39.3936Z" fill="#A2AAE0"/>
<path d="M103.421 64.3835C98.7955 67.041 92.4173 68.6855 85.391 68.6855C71.3237 68.6855 59.8783 62.093 59.8783 54.0029C59.8783 45.9128 71.3237 39.3203 85.391 39.3203C99.4584 39.3203 110.904 45.9128 110.904 54.0029C110.904 58.0406 108.046 61.7112 103.421 64.3835ZM70.1452 45.2227C66.2417 47.4691 63.826 50.5818 63.826 54.0029C63.826 60.845 73.5037 66.4244 85.4057 66.4244C97.3078 66.4244 106.985 60.8597 106.985 54.0029C106.985 47.1608 97.3078 41.5814 85.4057 41.5814C79.4547 41.5814 74.0635 42.9763 70.1452 45.2227Z" fill="white"/>
<path d="M129.258 57.5119C127.696 58.4076 125.531 58.9655 123.145 58.9655H108.208C107.118 58.9655 106.234 58.4516 106.234 57.835C106.234 57.2036 107.118 56.7044 108.208 56.7044H123.145C125.737 56.7044 127.858 55.4858 127.858 53.9881C127.858 52.4905 125.752 51.2719 123.145 51.2719H107.972C106.882 51.2719 105.999 50.758 105.999 50.1413C105.999 49.51 106.882 49.0107 107.972 49.0107H123.145C127.917 49.0107 131.791 51.2425 131.791 53.9881C131.791 55.3683 130.819 56.6163 129.258 57.5119Z" fill="white"/>
<path d="M92.6088 55.5004C92.0785 55.8087 91.3568 55.9849 90.6055 55.9849L76.2288 56.073C74.6527 56.0877 73.3564 55.3536 73.3417 54.4432C73.327 53.5329 74.5938 52.7841 76.1699 52.7841L87.6889 52.7107L87.3649 34.8273C87.3501 33.917 88.6169 33.1682 90.1931 33.1682C91.7692 33.1535 93.0655 33.8876 93.0802 34.798L93.4484 54.3258C93.4632 54.7663 93.1686 55.1774 92.6236 55.5004C92.6236 55.5004 92.6236 55.5004 92.6088 55.5004Z" fill="white"/>
</g>
<defs>
<clipPath id="clip0_2635_109">
<rect width="187" height="315" fill="white"/>
</clipPath>
</defs>
</svg>
