<svg width="29" height="29" viewBox="0 0 29 29" fill="none" xmlns="http://www.w3.org/2000/svg">
<path d="M24.7708 20.4557V12.0832C24.7708 7.52655 24.7708 5.24763 23.3546 3.83267C21.9385 2.41771 19.6607 2.4165 15.1041 2.4165H13.8958C9.33917 2.4165 7.06025 2.4165 5.64529 3.83267C4.23033 5.24884 4.22913 7.52655 4.22913 12.0832V23.5623" stroke="#2F2E51" stroke-width="1.8125" stroke-linecap="round" stroke-linejoin="round"/>
<path d="M24.7708 20.5415H7.24996C6.44878 20.5415 5.68042 20.8598 5.11391 21.4263C4.54739 21.9928 4.22913 22.7612 4.22913 23.5623C4.22913 24.3635 4.54739 25.1319 5.11391 25.6984C5.68042 26.2649 6.44878 26.5832 7.24996 26.5832H24.7708" stroke="#2F2E51" stroke-width="1.8125" stroke-linecap="round" stroke-linejoin="round"/>
<path d="M24.7708 26.5832C23.9696 26.5832 23.2013 26.2649 22.6347 25.6984C22.0682 25.1319 21.75 24.3635 21.75 23.5623C21.75 22.7612 22.0682 21.9928 22.6347 21.4263C23.2013 20.8598 23.9696 20.5415 24.7708 20.5415M14.8721 14.4999L13.1068 9.03698C13.0456 8.86479 12.9319 8.71622 12.7815 8.61233C12.6312 8.50844 12.4521 8.45451 12.2694 8.45818C12.0867 8.45451 11.9075 8.50844 11.7572 8.61233C11.6069 8.71622 11.4931 8.86479 11.432 9.03698L9.66663 14.4999M18.125 8.45818V14.4999M10.3167 12.6874H14.2208" stroke="#2F2E51" stroke-width="1.8125" stroke-linecap="round" stroke-linejoin="round"/>
</svg>
