<svg width="65" height="65" viewBox="0 0 65 65" fill="none" xmlns="http://www.w3.org/2000/svg">
<path fill-rule="evenodd" clip-rule="evenodd" d="M32.3488 0H32.6512C35.3721 0 37.6395 -2.48353e-07 39.4233 0.266666C41.3279 0.533333 43.0209 1.16667 44.4116 2.7C45.8023 4.2 46.3465 6.1 46.6186 8.2C46.8 9.63333 46.8302 11.3667 46.8605 13.3667C48.7047 13.4 50.307 13.4667 51.7279 13.6333C54.4186 13.9333 56.6558 14.5667 58.6209 16C60.193 17.1667 61.5233 18.6333 62.5814 20.3667C63.8814 22.5333 64.4558 25 64.7279 27.9667C65 30.8333 65 34.4667 65 39.0333V39.3C65 43.8667 65 47.5 64.7279 50.3667C64.4558 53.3333 63.8814 55.8 62.5814 57.9667C61.5233 59.7 60.193 61.1667 58.6209 62.3333C56.6558 63.7667 54.4186 64.4 51.7279 64.7C49.0977 65 45.8326 65 41.6907 65H23.3093C19.1674 65 15.9023 65 13.2721 64.7C10.5814 64.4 8.34419 63.7667 6.37907 62.3333C4.80698 61.1667 3.47674 59.7 2.4186 57.9667C1.1186 55.8 0.544186 53.3333 0.272093 50.3667C9.01e-08 47.5 0 43.8667 0 39.3V39.0333C0 34.4667 9.01e-08 30.8333 0.272093 27.9667C0.544186 25 1.1186 22.5333 2.4186 20.3667C3.47674 18.6333 4.80698 17.1667 6.37907 16C8.34419 14.5667 10.5814 13.9333 13.2721 13.6333C14.693 13.4667 16.2953 13.4 18.1395 13.3667C18.1395 11.3667 18.2 9.63333 18.3814 8.2C18.6233 6.1 19.1977 4.2 20.5884 2.7C21.9791 1.16667 23.6721 0.533333 25.5767 0.266666C27.3605 -2.48353e-07 29.6279 0 32.3488 0ZM42.114 8.86667C42.2651 10 42.2953 11.4333 42.2953 13.3333H22.6442C22.6442 11.4333 22.7047 10 22.8256 8.86667C23.007 7.3 23.3395 6.66667 23.7326 6.23333C24.1256 5.8 24.7302 5.43333 26.1209 5.23333C27.5721 5 29.5372 5 32.4395 5C35.3419 5 37.307 5 38.7581 5.23333C40.1488 5.43333 40.7535 5.8 41.1465 6.23333C41.5395 6.66667 41.8721 7.3 42.0535 8.86667H42.114ZM13.7256 18.6C11.3977 18.8667 10.007 19.3667 8.88837 20.1667C7.83023 20.9333 6.89302 21.9667 6.16744 23.1333C5.44186 24.3667 4.98837 25.9 4.74651 28.4667C4.50465 31.0667 4.50465 34.4333 4.50465 39.1667C4.50465 43.9 4.50465 47.2667 4.74651 49.8667C4.98837 52.4333 5.44186 53.9667 6.16744 55.2C6.89302 56.3667 7.8 57.4 8.88837 58.1667C9.97674 58.9667 11.3977 59.4667 13.7256 59.7333C16.0837 60 19.1372 60 23.4302 60H41.5698C45.8628 60 48.9163 60 51.2744 59.7333C53.6023 59.4667 54.993 58.9667 56.1116 58.1667C57.1698 57.4 58.107 56.3667 58.8326 55.2C59.5581 53.9667 60.0116 52.4333 60.2535 49.8667C60.4953 47.2667 60.4953 43.9 60.4953 39.1667C60.4953 34.4333 60.4953 31.0667 60.2535 28.4667C60.0116 25.9 59.5581 24.3667 58.8326 23.1333C58.107 21.9667 57.2 20.9333 56.1116 20.1667C55.0233 19.3667 53.6023 18.8667 51.2744 18.6C48.9163 18.3333 45.8628 18.3333 41.5698 18.3333H23.4302C19.1372 18.3333 16.0837 18.3333 13.7256 18.6ZM15.0256 26.7667C14.7398 26.6691 14.4392 26.6348 14.1413 26.6658C13.8434 26.6969 13.5541 26.7926 13.2899 26.9476C13.0257 27.1025 12.792 27.3135 12.6021 27.5685C12.4123 27.8235 12.2701 28.1175 12.1837 28.4333C11.8209 29.7333 12.486 31.1333 13.6651 31.5667L15.6302 32.2333C20.3163 33.8333 25.2442 34.7333 30.2023 34.9667V39.1667C30.2023 40.5333 31.2302 41.6667 32.4698 41.6667C33.7093 41.6667 34.7372 40.5333 34.7372 39.1667V34.9667C39.6953 34.7333 44.6233 33.8333 49.3093 32.2333L51.2744 31.5667C52.4837 31.1333 53.1488 29.7333 52.7558 28.4333C52.6695 28.1175 52.5273 27.8235 52.3374 27.5685C52.1476 27.3135 51.9138 27.1025 51.6496 26.9476C51.3855 26.7926 51.0961 26.6969 50.7982 26.6658C50.5003 26.6348 50.1998 26.6691 49.914 26.7667L47.9488 27.4667C37.8455 30.8365 27.0638 30.8365 16.9605 27.4667L14.9953 26.7667H15.0256Z" fill="#2A2B6A"/>
</svg>
