<svg width="75" height="75" viewBox="0 0 75 75" fill="none" xmlns="http://www.w3.org/2000/svg">
<path d="M34.0658 68.6247H29.2173C16.8191 68.6247 10.6218 68.6247 6.76921 64.6995C2.91663 60.7743 2.91663 54.4559 2.91663 41.8226C2.91663 29.1893 2.91663 22.8709 6.76921 18.9457C10.6218 15.0205 16.8191 15.0205 29.2173 15.0205H42.3693C54.7674 15.0205 60.9682 15.0205 64.8208 18.9457C67.7846 21.9648 68.4659 26.4019 68.625 34.0413" stroke="#0B103F" stroke-width="5" stroke-linecap="round" stroke-linejoin="round"/>
<path d="M51.3333 15.0207L50.9874 13.9486C49.2755 8.62275 48.4213 5.95984 46.3844 4.43817C44.344 2.9165 41.6395 2.9165 36.2203 2.9165H35.3108C29.8985 2.9165 27.1906 2.9165 25.1537 4.43817C23.1133 5.95984 22.259 8.62275 20.5472 13.9486L20.2083 15.0207M55.1755 41.84C55.8153 41.2521 56.1334 40.9582 56.5208 40.9582C56.9081 40.9582 57.2263 41.2521 57.866 41.84L60.3318 44.1122C60.6292 44.3854 60.778 44.5237 60.9613 44.5894C61.148 44.6586 61.3486 44.6517 61.7567 44.6344L65.0836 44.503C65.9413 44.4684 66.3701 44.4545 66.664 44.7001C66.958 44.9456 67.0168 45.371 67.1309 46.2218L67.5874 49.6317C67.6428 50.0259 67.667 50.2196 67.7638 50.3925C67.8606 50.5585 68.0162 50.6795 68.3275 50.9251L71.0112 53.0347C71.6752 53.5603 72.0072 53.8197 72.0729 54.1932C72.1386 54.5667 71.9138 54.9264 71.4711 55.6457L69.652 58.5749C69.4445 58.9104 69.3408 59.0798 69.3062 59.2666C69.2716 59.4533 69.3131 59.6505 69.3961 60.0378L70.1189 63.4201C70.2918 64.2501 70.3817 64.665 70.1915 64.997C70.0013 65.329 69.5967 65.4605 68.7909 65.7233L65.5885 66.7643C65.2081 66.8888 65.0144 66.951 64.8657 67.0755C64.717 67.2035 64.6236 67.3833 64.4403 67.7395L62.8772 70.7517C62.4795 71.5229 62.2789 71.9068 61.9157 72.0382C61.5526 72.1696 61.1549 72.0036 60.3526 71.6716L57.2816 70.399C56.9046 70.2433 56.7179 70.1638 56.5208 70.1638C56.3236 70.1638 56.1369 70.2433 55.7599 70.399L52.6889 71.6716C51.8866 72.0036 51.4889 72.1696 51.1257 72.0382C50.7626 71.9068 50.562 71.5195 50.1643 70.7517L48.6012 67.7395C48.4144 67.3833 48.3245 67.2035 48.1758 67.079C48.0271 66.9545 47.8334 66.8888 47.453 66.7677L44.2506 65.7233C43.4448 65.4605 43.0402 65.329 42.85 64.997C42.6598 64.665 42.7462 64.2535 42.9226 63.4201L43.6488 60.0378C43.7284 59.6505 43.7699 59.4568 43.7353 59.27C43.6644 59.0199 43.5471 58.7852 43.3895 58.5784L41.5738 55.6457C41.1243 54.9264 40.9029 54.5667 40.9686 54.1932C41.0343 53.8197 41.3663 53.5603 42.0303 53.0381L44.714 50.9285C45.0253 50.6795 45.1809 50.5585 45.2777 50.389C45.3745 50.2196 45.3988 50.0259 45.4506 49.6282L45.9106 46.2218C46.0247 45.3745 46.0835 44.9456 46.3775 44.7001C46.6714 44.4545 47.1003 44.4684 47.9579 44.503L51.2883 44.6344C51.6929 44.6517 51.8935 44.6586 52.0802 44.5894C52.2635 44.5203 52.4123 44.3854 52.7097 44.1122L55.1755 41.84Z" stroke="#0B103F" stroke-width="5" stroke-linecap="round" stroke-linejoin="round"/>
</svg>
