<svg width="65" height="65" viewBox="0 0 65 65" fill="none" xmlns="http://www.w3.org/2000/svg">
<g clip-path="url(#clip0_1_111)">
<path d="M60.9375 6.08667L44.6733 6.08673V2.03845C44.6733 0.916187 43.7643 0.00720215 42.642 0.00720215C41.5198 0.00720215 40.6108 0.916187 40.6108 2.03845V6.08572H24.3608V2.03845C24.3608 0.916187 23.4518 0.00720215 22.3295 0.00720215C21.2073 0.00720215 20.2983 0.916187 20.2983 2.03845V6.08572H4.0625C1.81898 6.08572 0 7.9047 0 10.1482V60.9295C0 63.1729 1.81898 64.992 4.0625 64.992H60.9375C63.181 64.992 65 63.1729 65 60.9295V10.1482C65 7.90565 63.181 6.08667 60.9375 6.08667ZM60.9375 60.9295H4.0625V10.1482H20.2983V12.1947C20.2983 13.3169 21.2073 14.226 22.3295 14.226C23.4518 14.226 24.3608 13.3169 24.3608 12.1947V10.1492H40.6108V12.1957C40.6108 13.318 41.5198 14.227 42.642 14.227C43.7643 14.227 44.6733 13.318 44.6733 12.1957V10.1492H60.9375V60.9295ZM46.7188 32.4929H50.7812C51.9025 32.4929 52.8125 31.5829 52.8125 30.4617V26.3992C52.8125 25.2779 51.9025 24.3679 50.7812 24.3679H46.7188C45.5975 24.3679 44.6875 25.2779 44.6875 26.3992V30.4617C44.6875 31.5829 45.5975 32.4929 46.7188 32.4929ZM46.7188 48.7419H50.7812C51.9025 48.7419 52.8125 47.8329 52.8125 46.7107V42.6482C52.8125 41.5269 51.9025 40.6169 50.7812 40.6169H46.7188C45.5975 40.6169 44.6875 41.5269 44.6875 42.6482V46.7107C44.6875 47.8339 45.5975 48.7419 46.7188 48.7419ZM34.5312 40.6169H30.4688C29.3475 40.6169 28.4375 41.5269 28.4375 42.6482V46.7107C28.4375 47.8329 29.3475 48.7419 30.4688 48.7419H34.5312C35.6525 48.7419 36.5625 47.8329 36.5625 46.7107V42.6482C36.5625 41.5279 35.6525 40.6169 34.5312 40.6169ZM34.5312 24.3679H30.4688C29.3475 24.3679 28.4375 25.2779 28.4375 26.3992V30.4617C28.4375 31.5829 29.3475 32.4929 30.4688 32.4929H34.5312C35.6525 32.4929 36.5625 31.5829 36.5625 30.4617V26.3992C36.5625 25.2769 35.6525 24.3679 34.5312 24.3679ZM18.2812 24.3679H14.2188C13.0975 24.3679 12.1875 25.2779 12.1875 26.3992V30.4617C12.1875 31.5829 13.0975 32.4929 14.2188 32.4929H18.2812C19.4025 32.4929 20.3125 31.5829 20.3125 30.4617V26.3992C20.3125 25.2769 19.4025 24.3679 18.2812 24.3679ZM18.2812 40.6169H14.2188C13.0975 40.6169 12.1875 41.5269 12.1875 42.6482V46.7107C12.1875 47.8329 13.0975 48.7419 14.2188 48.7419H18.2812C19.4025 48.7419 20.3125 47.8329 20.3125 46.7107V42.6482C20.3125 41.5279 19.4025 40.6169 18.2812 40.6169Z" fill="#2A2B6A"/>
</g>

</svg>
