<svg width="354" height="382" viewBox="0 0 354 382" fill="none" xmlns="http://www.w3.org/2000/svg">
<path d="M44.2563 397.977C90.925 419.71 143.084 425.954 191.973 415.659C240.862 405.365 283.502 379.159 312.732 341.444C341.962 303.728 356 256.801 352.49 208.544C348.979 160.287 328.133 113.64 293.453 76.4373C258.773 39.235 212.371 13.7439 162.043 4.24571C111.714 -5.25252 60.5232 1.82069 17.0694 24.2773C-26.3845 46.7339 -59.4546 83.2059 -76.5864 127.567C-93.7182 171.929 -93.8681 221.477 -77.0107 267.89L14.8265 242.561C5.38552 216.567 5.46943 188.817 15.0642 163.972C24.6589 139.127 43.18 118.701 67.5166 106.124C91.8532 93.547 120.523 89.5857 148.71 94.9052C176.897 100.225 202.884 114.501 222.307 135.336C241.729 156.172 253.404 182.297 255.371 209.324C257.337 236.35 249.474 262.632 233.104 283.755C216.734 304.877 192.853 319.554 165.472 325.32C138.092 331.085 108.88 327.588 82.7428 315.416L44.2563 397.977Z" fill="#0B58AD" fill-opacity="0.21"/>
</svg>
