<svg width="67" height="67" viewBox="0 0 67 67" fill="none" xmlns="http://www.w3.org/2000/svg">
<path d="M33.3639 42.801V17.9985" stroke="#FFC728" stroke-width="4.62893" stroke-linecap="round"/>
<path d="M20.9626 36.6019V24.2007" stroke="#FFC728" stroke-width="4.62893" stroke-linecap="round"/>
<path d="M45.765 36.6019V24.2007" stroke="#FFC728" stroke-width="4.62893" stroke-linecap="round"/>
<path d="M31.8129 63.3213C32.7666 63.8514 33.9617 63.8524 34.9154 63.3223L36.3949 64.1982C34.6674 65.6471 32.0598 65.6472 30.3324 64.1982L31.8129 63.3213ZM29.8812 60.8779L28.5355 61.6758L28.4271 61.4912L29.7728 60.6943L29.8812 60.8779ZM38.3002 61.4922L38.1918 61.6758L36.8451 60.8789L36.9545 60.6953L38.3002 61.4922ZM26.9008 56.1885C26.9891 56.2897 27.0773 56.3944 27.1635 56.5049L27.349 56.751C27.6168 57.1185 27.8916 57.548 28.1937 58.042L26.847 58.8398C26.5644 58.378 26.3193 57.9954 26.0844 57.6729V57.6719C26.0758 57.6602 26.0665 57.6492 26.058 57.6377L26.9008 56.1885ZM40.6683 57.6367C40.6598 57.6483 40.6515 57.6601 40.6429 57.6719V57.6729C40.4079 57.9955 40.162 58.3779 39.8793 58.8398L38.5326 58.042C38.8349 57.5477 39.1113 57.1187 39.3793 56.751C39.5262 56.5494 39.6736 56.3616 39.8256 56.1875L40.6683 57.6367ZM21.8656 54.4268C22.4808 54.4454 23.0191 54.4729 23.4935 54.5254C23.7518 54.554 23.997 54.5913 24.2318 54.6387L23.389 56.0889C23.3668 56.0862 23.3444 56.0836 23.3217 56.0811L23.3207 56.0801L22.7211 56.0303C22.4531 56.0133 22.1611 56.002 21.8392 55.9922L21.8656 54.4268ZM44.8871 55.9922C44.3086 56.0099 43.8263 56.0339 43.4076 56.0801L43.4066 56.0811C43.3833 56.0836 43.36 56.0862 43.3373 56.0889L42.4945 54.6387C42.7299 54.5911 42.9759 54.5541 43.2347 54.5254C43.7088 54.473 44.2463 54.4463 44.8607 54.4277L44.8871 55.9922ZM13.6996 53.7803C15.0367 54.1158 16.6386 54.2765 18.7816 54.3525L18.7543 55.917C16.4549 55.837 14.6543 55.6564 13.0961 55.2373L13.6996 53.7803ZM53.6302 55.2373C52.0723 55.6562 50.272 55.8371 47.973 55.917L47.9457 54.3525C50.0882 54.2766 51.6898 54.1156 53.0267 53.7803L53.6302 55.2373ZM4.92908 46.7275C6.28589 49.2251 8.3379 51.2769 10.8353 52.6338L10.2328 54.0859C7.35596 52.5602 5.00135 50.2061 3.47595 47.3291L4.92908 46.7275ZM63.2504 47.3291C61.7247 50.2062 59.3706 52.5603 56.4935 54.0859L55.892 52.6338C58.3896 51.2769 60.4413 49.2251 61.7982 46.7275L63.2504 47.3291ZM65.1478 33.4932C65.1451 36.3496 65.1279 38.6156 65.0004 40.4854C64.896 42.0143 64.7161 43.3058 64.4037 44.4668L62.9427 43.8613C63.1883 42.8822 63.3447 41.758 63.4388 40.3789C63.5626 38.5642 63.5806 36.3503 63.5834 33.4932H65.1478ZM65.1488 30.3926V30.4072H63.5844V30.3926H65.1488ZM63.4662 10.8604C64.1605 12.4197 64.5653 14.1918 64.8021 16.3271L64.8597 16.8926C65.1195 19.6235 65.1442 22.997 65.1469 27.3066H63.5824C63.5795 22.9881 63.555 19.6914 63.3031 17.041C63.0936 14.8383 62.7306 13.127 62.1205 11.6846L63.4662 10.8604ZM4.60583 11.6846C3.99592 13.1269 3.63458 14.8385 3.42517 17.041C3.1732 19.6914 3.14775 22.9881 3.1449 27.3066H1.58044C1.58313 22.9971 1.60789 19.6236 1.86755 16.8926C2.09484 14.5021 2.50553 12.5551 3.26013 10.8604L4.60583 11.6846ZM8.8988 6.32422C7.8808 7.10583 6.96948 8.01716 6.18787 9.03516L4.84802 8.21289C5.76725 6.99039 6.85404 5.90361 8.07654 4.98438L8.8988 6.32422ZM58.6498 4.9834C59.8728 5.9028 60.9597 6.99002 61.8793 8.21289L60.5385 9.03516C59.7569 8.01733 58.8464 7.1057 57.8285 6.32422L58.6498 4.9834ZM27.1703 3.28125C22.8517 3.2841 19.555 3.30955 16.9047 3.56152C14.7022 3.77094 12.9905 4.13227 11.5482 4.74219L10.724 3.39648C12.4188 2.64188 14.3658 2.23119 16.7562 2.00391C19.4872 1.74424 22.8607 1.71948 27.1703 1.7168V3.28125ZM39.557 1.7168C43.8669 1.71948 47.2409 1.74423 49.972 2.00391C52.3619 2.23118 54.3086 2.64202 56.0033 3.39648L55.1781 4.74219C53.7361 4.1326 52.0255 3.77088 49.8236 3.56152C47.1731 3.30951 43.8759 3.2841 39.557 3.28125V1.7168ZM36.4711 1.71484V3.2793H30.2562V1.71484H36.4711Z" fill="#1C274C" stroke="#FFC728" stroke-width="3.08595"/>
</svg>
