<svg width="182" height="446" viewBox="0 0 182 446" fill="none" xmlns="http://www.w3.org/2000/svg">
<path d="M403.911 150.401C385.74 102.091 352.804 61.01 310.633 34.0564C268.463 7.1029 219.628 -4.08073 172.33 2.38403C125.033 8.84878 82.1539 32.5681 50.8962 69.5579C19.6385 106.548 1.90598 154.555 0.67706 205.516C-0.551854 256.476 14.7977 307.286 44.1476 349.411C73.4974 391.537 115.06 422.41 161.853 436.847C208.647 451.284 257.821 448.405 301.117 428.693C344.412 408.981 379.192 373.637 399.613 328.597L316.204 282.252C304.767 307.476 285.289 327.271 261.041 338.311C236.793 349.351 209.253 350.963 183.046 342.878C156.839 334.792 133.562 317.501 117.124 293.909C100.686 270.316 92.0898 241.86 92.7781 213.319C93.4664 184.778 103.398 157.892 120.904 137.175C138.41 116.459 162.424 103.175 188.913 99.5543C215.403 95.9337 242.753 102.197 266.371 117.293C289.989 132.388 308.435 155.396 318.611 182.452L403.911 150.401Z" fill="#0B58AD" fill-opacity="0.21"/>
</svg>
