<svg width="65" height="65" viewBox="0 0 65 65" fill="none" xmlns="http://www.w3.org/2000/svg">
<path d="M47.9375 51.9999C48.584 51.9999 49.204 51.7431 49.6611 51.286C50.1182 50.8288 50.375 50.2088 50.375 49.5624V25.1874C50.375 24.5409 50.1182 23.9209 49.6611 23.4638C49.204 23.0067 48.584 22.7499 47.9375 22.7499C47.291 22.7499 46.671 23.0067 46.2139 23.4638C45.7568 23.9209 45.5 24.5409 45.5 25.1874V49.5624C45.5 50.2088 45.7568 50.8288 46.2139 51.286C46.671 51.7431 47.291 51.9999 47.9375 51.9999ZM32.5 51.9999C33.1465 51.9999 33.7665 51.7431 34.2236 51.286C34.6807 50.8288 34.9375 50.2088 34.9375 49.5624V34.9374C34.9375 34.2909 34.6807 33.6709 34.2236 33.2138C33.7665 32.7567 33.1465 32.4999 32.5 32.4999C31.8535 32.4999 31.2335 32.7567 30.7764 33.2138C30.3193 33.6709 30.0625 34.2909 30.0625 34.9374V49.5624C30.0625 50.2088 30.3193 50.8288 30.7764 51.286C31.2335 51.7431 31.8535 51.9999 32.5 51.9999ZM19.5 49.5624C19.5 50.2088 19.2432 50.8288 18.7861 51.286C18.329 51.7431 17.709 51.9999 17.0625 51.9999C16.416 51.9999 15.796 51.7431 15.3389 51.286C14.8818 50.8288 14.625 50.2088 14.625 49.5624V18.6874C14.625 18.0409 14.8818 17.4209 15.3389 16.9638C15.796 16.5067 16.416 16.2499 17.0625 16.2499C17.709 16.2499 18.329 16.5067 18.7861 16.9638C19.2432 17.4209 19.5 18.0409 19.5 18.6874V49.5624Z" fill="#2A2B6A"/>
<path d="M59.3125 65H5.6875C2.548 65 0 62.452 0 59.3125V5.6875C0 4.17908 0.59922 2.73244 1.66583 1.66583C2.73244 0.59922 4.17908 0 5.6875 0H59.3125C60.8209 0 62.2676 0.59922 63.3342 1.66583C64.4008 2.73244 65 4.17908 65 5.6875V59.3125C65 62.452 62.452 65 59.3125 65ZM60.125 59.3125V5.6875C60.125 5.239 59.761 4.875 59.3125 4.875H5.6875C5.47201 4.875 5.26535 4.9606 5.11298 5.11298C4.9606 5.26535 4.875 5.47201 4.875 5.6875V59.3125C4.875 59.528 4.9606 59.7347 5.11298 59.887C5.26535 60.0394 5.47201 60.125 5.6875 60.125H59.3125C59.528 60.125 59.7347 60.0394 59.887 59.887C60.0394 59.7347 60.125 59.528 60.125 59.3125Z" fill="#2A2B6A"/>
</svg>
