<svg width="1226" height="23" viewBox="0 0 1226 23" fill="none" xmlns="http://www.w3.org/2000/svg">
<path d="M0 3.17098C0 1.82794 1.08874 0.739197 2.43178 0.739197H1223.18C1224.53 0.739197 1225.62 1.82794 1225.62 3.17098V8.03453H0V3.17098Z" fill="#E2E8F0"/>
<path d="M0 3.17098C0 1.82794 1.08874 0.739197 2.43178 0.739197H1223.18C1224.53 0.739197 1225.62 1.82794 1225.62 3.17098V8.03453H0V3.17098Z" fill="url(#paint0_linear_516_527)"/>
<path d="M0 8.03455H1225.62L1200.87 13.0258C1169.22 19.4095 1137.01 22.6252 1104.72 22.6252H119.046C83.5608 22.6252 48.1816 18.7416 13.541 11.0437L0 8.03455Z" fill="#E2E8F0"/>
<path d="M0 8.03455H1225.62L1200.87 13.0258C1169.22 19.4095 1137.01 22.6252 1104.72 22.6252H119.046C83.5608 22.6252 48.1816 18.7416 13.541 11.0437L0 8.03455Z" fill="url(#paint1_linear_516_527)"/>
<path fill-rule="evenodd" clip-rule="evenodd" d="M522.872 0.739197C523.498 4.81314 520.463 8.03453 530.128 8.03453H696.704C706.369 8.03453 703.334 4.81314 703.96 0.739197H522.872Z" fill="#E2E8F0"/>
<path fill-rule="evenodd" clip-rule="evenodd" d="M522.872 0.739197C523.498 4.81314 520.463 8.03453 530.128 8.03453H696.704C706.369 8.03453 703.334 4.81314 703.96 0.739197H522.872Z" fill="url(#paint2_linear_516_527)"/>
<defs>
<linearGradient id="paint0_linear_516_527" x1="-2.36433e-10" y1="4.38695" x2="1225.62" y2="4.38696" gradientUnits="userSpaceOnUse">
<stop stop-color="#B7C2D0"/>
<stop offset="0.0295345" stop-color="#CAD4DB"/>
<stop offset="0.0625" stop-color="#BECCDE"/>
<stop offset="0.133609" stop-color="#B7C2D0" stop-opacity="0.7"/>
<stop offset="0.865967" stop-color="#B7C2D0" stop-opacity="0.7"/>
<stop offset="0.941937" stop-color="#BECCDE"/>
<stop offset="0.971275" stop-color="#CAD4DB"/>
<stop offset="0.996436" stop-color="#B7C2D0"/>
</linearGradient>
<linearGradient id="paint1_linear_516_527" x1="612.808" y1="8.03455" x2="612.808" y2="22.6252" gradientUnits="userSpaceOnUse">
<stop stop-color="#D1DBE9"/>
<stop offset="1" stop-color="#AAB5C6"/>
</linearGradient>
<linearGradient id="paint2_linear_516_527" x1="540.736" y1="5.1685" x2="689.351" y2="5.1685" gradientUnits="userSpaceOnUse">
<stop stop-color="#CFD9E7"/>
<stop offset="0.317518" stop-color="#CFD9E7" stop-opacity="0"/>
<stop offset="0.660584" stop-color="#CFD9E7" stop-opacity="0"/>
<stop offset="1" stop-color="#CFD9E7"/>
</linearGradient>
</defs>
</svg>
