<svg width="75" height="71" viewBox="0 0 75 71" fill="none" xmlns="http://www.w3.org/2000/svg">
<path d="M34.0659 68.3542H29.2173C16.8192 68.3542 10.6218 68.3542 6.76924 64.429C2.91666 60.5038 2.91666 54.1854 2.91666 41.5521C2.91666 28.9188 2.91666 22.6004 6.76924 18.6752C10.6218 14.75 16.8192 14.75 29.2173 14.75H42.3693C54.7675 14.75 60.9682 14.75 64.8208 18.6752C67.7846 21.6943 68.4659 26.1314 68.625 33.7708V38.9583" stroke="#currentColor" stroke-width="5" stroke-linecap="round" stroke-linejoin="round"/>
<path d="M61.7083 57.9793H51.3333M51.3333 68.3543C48.5817 68.3543 45.9428 67.2613 43.9971 65.3156C42.0514 63.3699 40.9583 60.731 40.9583 57.9793C40.9583 55.2277 42.0514 52.5888 43.9971 50.6431C45.9428 48.6974 48.5817 47.6043 51.3333 47.6043M61.7083 68.3543C64.4599 68.3543 67.0989 67.2613 69.0445 65.3156C70.9902 63.3699 72.0833 60.731 72.0833 57.9793C72.0833 55.2277 70.9902 52.5888 69.0445 50.6431C67.0989 48.6974 64.4599 47.6043 61.7083 47.6043M51.3333 14.7502L50.9875 13.6781C49.2756 8.35225 48.4214 5.68933 46.3844 4.16766C44.344 2.646 41.6396 2.646 36.2239 2.646H35.3143C29.902 2.646 27.1941 2.646 25.1572 4.16766C23.1168 5.68933 22.2626 8.35225 20.5507 13.6781L20.2083 14.7502" stroke="#currentColor  " stroke-width="5" stroke-linecap="round" stroke-linejoin="round"/>
</svg>
