<svg width="65" height="65" viewBox="0 0 65 65" fill="none" xmlns="http://www.w3.org/2000/svg">
<path d="M21.9375 16.25C21.291 16.25 20.671 16.5068 20.2139 16.9639C19.7568 17.421 19.5 18.041 19.5 18.6875C19.5 19.334 19.7568 19.954 20.2139 20.4111C20.671 20.8682 21.291 21.125 21.9375 21.125H46.3125C46.959 21.125 47.579 20.8682 48.0361 20.4111C48.4932 19.954 48.75 19.334 48.75 18.6875C48.75 18.041 48.4932 17.421 48.0361 16.9639C47.579 16.5068 46.959 16.25 46.3125 16.25H21.9375ZM16.25 31.6875C16.25 31.041 16.5068 30.421 16.9639 29.9639C17.421 29.5068 18.041 29.25 18.6875 29.25H39.8125C40.459 29.25 41.079 29.5068 41.5361 29.9639C41.9932 30.421 42.25 31.041 42.25 31.6875C42.25 32.334 41.9932 32.954 41.5361 33.4111C41.079 33.8682 40.459 34.125 39.8125 34.125H18.6875C18.041 34.125 17.421 33.8682 16.9639 33.4111C16.5068 32.954 16.25 32.334 16.25 31.6875ZM25.1875 42.25C24.541 42.25 23.921 42.5068 23.4639 42.9639C23.0068 43.421 22.75 44.041 22.75 44.6875C22.75 45.334 23.0068 45.954 23.4639 46.4111C23.921 46.8682 24.541 47.125 25.1875 47.125H46.3125C46.959 47.125 47.579 46.8682 48.0361 46.4111C48.4932 45.954 48.75 45.334 48.75 44.6875C48.75 44.041 48.4932 43.421 48.0361 42.9639C47.579 42.5068 46.959 42.25 46.3125 42.25H25.1875Z" fill="#2A2B6A"/>
<path d="M0 5.6875C0 2.548 2.548 0 5.6875 0H59.3125C62.452 0 65 2.548 65 5.6875V59.3125C65 60.8209 64.4008 62.2676 63.3342 63.3342C62.2676 64.4008 60.8209 65 59.3125 65H5.6875C4.17908 65 2.73244 64.4008 1.66583 63.3342C0.599217 62.2676 0 60.8209 0 59.3125V5.6875ZM5.6875 4.875C5.47201 4.875 5.26535 4.9606 5.11298 5.11298C4.9606 5.26535 4.875 5.47201 4.875 5.6875V59.3125C4.875 59.761 5.239 60.125 5.6875 60.125H59.3125C59.528 60.125 59.7347 60.0394 59.887 59.887C60.0394 59.7347 60.125 59.528 60.125 59.3125V5.6875C60.125 5.47201 60.0394 5.26535 59.887 5.11298C59.7347 4.9606 59.528 4.875 59.3125 4.875H5.6875Z" fill="#2A2B6A"/>
</svg>
