<svg width="23" height="23" viewBox="0 0 23 23" fill="none" xmlns="http://www.w3.org/2000/svg">
<g clip-path="url(#clip0_253_1915)">
<path d="M21.5625 2.15364L15.8075 2.15366V0.721191C15.8075 0.324082 15.4858 0.00244141 15.0887 0.00244141C14.6916 0.00244141 14.37 0.324082 14.37 0.721191V2.1533H8.61997V0.721191C8.61997 0.324082 8.29833 0.00244141 7.90122 0.00244141C7.50411 0.00244141 7.18247 0.324082 7.18247 0.721191V2.1533H1.4375C0.643641 2.1533 0 2.79694 0 3.5908V21.5596C0 22.3534 0.643641 22.9971 1.4375 22.9971H21.5625C22.3564 22.9971 23 22.3534 23 21.5596V3.5908C23 2.79728 22.3564 2.15364 21.5625 2.15364ZM21.5625 21.5596H1.4375V3.5908H7.18247V4.31494C7.18247 4.71203 7.50411 5.03369 7.90122 5.03369C8.29833 5.03369 8.61997 4.71203 8.61997 4.31494V3.59116H14.37V4.3153C14.37 4.71241 14.6916 5.03405 15.0887 5.03405C15.4858 5.03405 15.8075 4.71241 15.8075 4.3153V3.59116H21.5625V21.5596ZM16.5312 11.4974H17.9688C18.3655 11.4974 18.6875 11.1754 18.6875 10.7786V9.34114C18.6875 8.94439 18.3655 8.62239 17.9688 8.62239H16.5312C16.1345 8.62239 15.8125 8.94439 15.8125 9.34114V10.7786C15.8125 11.1754 16.1345 11.4974 16.5312 11.4974ZM16.5312 17.247H17.9688C18.3655 17.247 18.6875 16.9254 18.6875 16.5283V15.0908C18.6875 14.694 18.3655 14.372 17.9688 14.372H16.5312C16.1345 14.372 15.8125 14.694 15.8125 15.0908V16.5283C15.8125 16.9257 16.1345 17.247 16.5312 17.247ZM12.2188 14.372H10.7812C10.3845 14.372 10.0625 14.694 10.0625 15.0908V16.5283C10.0625 16.9254 10.3845 17.247 10.7812 17.247H12.2188C12.6155 17.247 12.9375 16.9254 12.9375 16.5283V15.0908C12.9375 14.6944 12.6155 14.372 12.2188 14.372ZM12.2188 8.62239H10.7812C10.3845 8.62239 10.0625 8.94439 10.0625 9.34114V10.7786C10.0625 11.1754 10.3845 11.4974 10.7812 11.4974H12.2188C12.6155 11.4974 12.9375 11.1754 12.9375 10.7786V9.34114C12.9375 8.94403 12.6155 8.62239 12.2188 8.62239ZM6.46875 8.62239H5.03125C4.6345 8.62239 4.3125 8.94439 4.3125 9.34114V10.7786C4.3125 11.1754 4.6345 11.4974 5.03125 11.4974H6.46875C6.8655 11.4974 7.1875 11.1754 7.1875 10.7786V9.34114C7.1875 8.94403 6.8655 8.62239 6.46875 8.62239ZM6.46875 14.372H5.03125C4.6345 14.372 4.3125 14.694 4.3125 15.0908V16.5283C4.3125 16.9254 4.6345 17.247 5.03125 17.247H6.46875C6.8655 17.247 7.1875 16.9254 7.1875 16.5283V15.0908C7.1875 14.6944 6.8655 14.372 6.46875 14.372Z" fill="#2F2E51"/>
</g>
<defs>
<clipPath id="clip0_253_1915">
<rect width="23" height="23" fill="white"/>
</clipPath>
</defs>
</svg>
