<svg width="75" height="75" viewBox="0 0 75 75" fill="none" xmlns="http://www.w3.org/2000/svg">
<path d="M34.0659 68.6247H29.2173C16.8192 68.6247 10.6219 68.6247 6.76927 64.6995C2.91669 60.7743 2.91669 54.4559 2.91669 41.8226C2.91669 29.1893 2.91669 22.8709 6.76927 18.9457C10.6219 15.0205 16.8192 15.0205 29.2173 15.0205H42.3694C54.7675 15.0205 60.9683 15.0205 64.8209 18.9457C67.7846 21.9648 68.4659 26.4019 68.625 34.0413" stroke="#currentColor" stroke-width="5" stroke-linecap="round" stroke-linejoin="round"/>
<path d="M61.1896 61.1894L56.5209 58.0769V50.2957M51.3334 15.0207L50.9875 13.9486C49.2791 8.62275 48.4215 5.95984 46.3845 4.43817C44.3441 2.9165 41.6397 2.9165 36.2274 2.9165H35.3144C29.9021 2.9165 27.1942 2.9165 25.1572 4.43817C23.1168 5.95984 22.2626 8.62275 20.5507 13.9486L20.2084 15.0207M40.9584 56.5207C40.9584 58.5644 41.3609 60.5881 42.143 62.4762C42.9251 64.3643 44.0714 66.0799 45.5165 67.525C46.9616 68.9701 48.6772 70.1165 50.5654 70.8985C52.4535 71.6806 54.4772 72.0832 56.5209 72.0832C58.5646 72.0832 60.5883 71.6806 62.4764 70.8985C64.3645 70.1165 66.0801 68.9701 67.5252 67.525C68.9703 66.0799 70.1167 64.3643 70.8987 62.4762C71.6808 60.5881 72.0834 58.5644 72.0834 56.5207C72.0834 52.3932 70.4438 48.4349 67.5252 45.5163C64.6067 42.5978 60.6483 40.9582 56.5209 40.9582C52.3934 40.9582 48.4351 42.5978 45.5165 45.5163C42.598 48.4349 40.9584 52.3932 40.9584 56.5207Z" stroke="#currentColor" stroke-width="5" stroke-linecap="round" stroke-linejoin="round"/>
</svg>
