<svg width="75" height="75" viewBox="0 0 75 75" fill="none" xmlns="http://www.w3.org/2000/svg">
<path d="M34.0655 68.6247H29.217C16.8188 68.6247 10.6215 68.6247 6.76892 64.6995C2.91634 60.7743 2.91634 54.4559 2.91634 41.8226C2.91634 29.1893 2.91634 22.8709 6.76892 18.9457C10.6215 15.0205 16.8188 15.0205 29.217 15.0205H42.369C54.7671 15.0205 60.9679 15.0205 64.8205 18.9457C67.7843 21.9648 68.4656 26.4019 68.6247 34.0413" stroke="#0B103F" stroke-width="5.1875" stroke-linecap="round" stroke-linejoin="round"/>
<path d="M65.2251 65.246L72.083 72.0832M51.333 15.0207L50.9872 13.9486C49.2753 8.62275 48.4211 5.95984 46.3841 4.43817C44.3437 2.9165 41.6393 2.9165 36.2201 2.9165H35.3105C29.8983 2.9165 27.1904 2.9165 25.1534 4.43817C23.113 5.95984 22.2588 8.62275 20.5469 13.9486L20.208 15.0207M68.808 56.6106C68.8352 54.9917 68.5399 53.3836 67.9393 51.8801C67.3386 50.3766 66.4446 49.0076 65.3094 47.8532C64.1742 46.6987 62.8206 45.7818 61.3273 45.1559C59.8341 44.53 58.2312 44.2077 56.6122 44.2077C54.9931 44.2077 53.3902 44.53 51.897 45.1559C50.4037 45.7818 49.0501 46.6987 47.9149 47.8532C46.7797 49.0076 45.8857 50.3766 45.285 51.8801C44.6844 53.3836 44.3891 54.9917 44.4163 56.6106C44.4702 59.8095 45.7788 62.8593 48.0601 65.1025C50.3414 67.3457 53.4127 68.6028 56.6122 68.6028C59.8116 68.6028 62.8829 67.3457 65.1642 65.1025C67.4455 62.8593 68.7541 59.8095 68.808 56.6106Z" stroke="#0B103F" stroke-width="5.1875" stroke-linecap="round" stroke-linejoin="round"/>
</svg>
